<svg width="363" height="198" viewBox="0 0 363 198" fill="none" xmlns="http://www.w3.org/2000/svg">
<rect width="363" height="198" rx="7" fill="#2400FF" fill-opacity="0.08"/>
<path d="M109.116 120H102.085V85.875H109.116V120ZM124.843 85.875L133.608 110.625L142.327 85.875H151.561V120H144.507V110.672L145.21 94.5703L135.999 120H131.171L121.983 94.5938L122.686 110.672V120H115.655V85.875H124.843ZM177.389 112.969H165.061L162.718 120H155.241L167.944 85.875H174.46L187.233 120H179.757L177.389 112.969ZM166.96 107.273H175.491L171.202 94.5L166.96 107.273ZM216.905 115.688C215.639 117.203 213.85 118.383 211.538 119.227C209.225 120.055 206.663 120.469 203.85 120.469C200.897 120.469 198.303 119.828 196.069 118.547C193.85 117.25 192.132 115.375 190.913 112.922C189.71 110.469 189.093 107.586 189.061 104.273V101.953C189.061 98.5469 189.632 95.6016 190.772 93.1172C191.928 90.6172 193.585 88.7109 195.741 87.3984C197.913 86.0703 200.452 85.4062 203.358 85.4062C207.405 85.4062 210.569 86.375 212.85 88.3125C215.132 90.2344 216.483 93.0391 216.905 96.7266H210.061C209.749 94.7734 209.053 93.3438 207.975 92.4375C206.913 91.5312 205.444 91.0781 203.569 91.0781C201.178 91.0781 199.358 91.9766 198.108 93.7734C196.858 95.5703 196.225 98.2422 196.21 101.789V103.969C196.21 107.547 196.889 110.25 198.249 112.078C199.608 113.906 201.6 114.82 204.225 114.82C206.866 114.82 208.749 114.258 209.874 113.133V107.25H203.475V102.07H216.905V115.688ZM243.155 105.211H229.655V114.352H245.499V120H222.624V85.875H245.452V91.5703H229.655V99.7031H243.155V105.211Z" fill="#0047FF" fill-opacity="0.5"/>
</svg>
